<svg xmlns="http://www.w3.org/2000/svg" xmlns:xlink="http://www.w3.org/1999/xlink" width="142" height="39.259" viewBox="0 0 142 39.259">
  <defs>
    <linearGradient id="linear-gradient" x1="0.5" x2="0.501" y2="1" gradientUnits="objectBoundingBox">
      <stop offset="0.216" stop-color="#fff" stop-opacity="0.569"/>
      <stop offset="1" stop-color="#fff" stop-opacity="0.431"/>
    </linearGradient>
    <radialGradient id="radial-gradient" cx="0.773" cy="0.93" r="0.961" gradientTransform="matrix(-0.52, 0, 0, -0.52, 0.902, 0.984)" gradientUnits="objectBoundingBox">
      <stop offset="0" stop-color="#ffeb38"/>
      <stop offset="1" stop-color="#f90"/>
    </radialGradient>
  </defs>
  <g id="Group_23" data-name="Group 23" transform="translate(-240 -163)">
    <rect id="Rectangle_5" data-name="Rectangle 5" width="142" height="39.259" rx="16" transform="translate(240 163)" fill="url(#linear-gradient)"/>
    <path id="Vector" d="M9.263.621a35.383,35.383,0,0,1,13.2,0,10.02,10.02,0,0,1,8.592,7.727,25.443,25.443,0,0,1,0,11.706,10.03,10.03,0,0,1-8.667,7.738,35.4,35.4,0,0,1-13.053,0c-4.507-.659-8.05-3.88-8.7-7.936a25.444,25.444,0,0,1,0-11.31C1.283,4.512,4.791,1.3,9.263.621Z" transform="translate(254.51 168.012)" fill="url(#radial-gradient)"/>
    <path id="Vector-2" data-name="Vector" d="M.377,7.346A.411.411,0,0,1,.183,7.3a.357.357,0,0,1-.139-.13A.308.308,0,0,1,0,6.992a.314.314,0,0,1,.063-.171L5.075.149A.366.366,0,0,1,5.211.04a.416.416,0,0,1,.354,0A.365.365,0,0,1,5.7.149l5.012,6.672a.314.314,0,0,1,.063.171.308.308,0,0,1-.044.176.357.357,0,0,1-.139.13.411.411,0,0,1-.194.048H7.754v4.883a.32.32,0,0,1-.11.238.4.4,0,0,1-.266.1H3.4a.4.4,0,0,1-.266-.1.32.32,0,0,1-.11-.238V7.346Z" transform="translate(264.991 175.451)" fill="#fff"/>
  </g>
</svg>
